<?xml version="1.0" standalone="no"?>
<!DOCTYPE svg PUBLIC "-//W3C//DTD SVG 20010904//EN"
 "http://www.w3.org/TR/2001/REC-SVG-20010904/DTD/svg10.dtd">
<svg version="1.0" xmlns="http://www.w3.org/2000/svg"
 width="750.000000pt" height="750.000000pt" viewBox="0 0 750.000000 750.000000"
 preserveAspectRatio="xMidYMid meet">
<metadata>
Created by potrace 1.14, written by Peter Selinger 2001-2017
</metadata>
<g transform="translate(0.000000,750.000000) scale(0.100000,-0.100000)"
fill="#000000" stroke="none">
<path d="M3830 6915 l0 -85 -85 0 -85 0 0 -80 0 -80 -80 0 -80 0 0 -85 0 -85
-170 0 -170 0 0 -250 0 -250 -165 0 -165 0 0 -250 0 -250 -85 0 -85 0 0 -85 0
-85 -165 0 -165 0 0 -80 0 -80 -85 0 -85 0 0 -85 0 -85 -80 0 -80 0 0 -85 0
-85 -85 0 -85 0 0 -415 0 -415 85 0 85 0 0 -85 0 -85 80 0 80 0 0 -330 0 -330
-80 0 -80 0 0 -250 0 -250 -85 0 -85 0 0 -335 0 -335 85 0 85 0 0 -85 0 -85
80 0 80 0 0 -80 0 -80 85 0 85 0 0 -85 0 -85 85 0 85 0 0 -85 0 -85 80 0 80 0
0 -80 0 -80 85 0 85 0 0 -85 0 -85 85 0 85 0 0 -250 0 -250 165 0 165 0 0 165
0 165 165 0 165 0 0 85 0 85 250 0 250 0 0 165 0 165 85 0 85 0 0 170 0 170
85 0 85 0 0 165 0 165 165 0 165 0 0 85 0 85 165 0 165 0 0 250 0 250 85 0 85
0 0 165 0 165 85 0 85 0 0 165 0 165 80 0 80 0 0 85 0 85 85 0 85 0 0 335 0
335 -85 0 -85 0 0 80 0 80 -80 0 -80 0 0 85 0 85 -85 0 -85 0 0 85 0 85 -85 0
-85 0 0 80 0 80 85 0 85 0 0 85 0 85 85 0 85 0 0 165 0 165 -85 0 -85 0 0 85
0 85 -85 0 -85 0 0 415 0 415 -80 0 -80 0 0 85 0 85 -335 0 -335 0 0 165 0
165 -85 0 -85 0 0 85 0 85 -165 0 -165 0 0 -85z m330 -165 l0 -80 -80 0 -80 0
0 80 0 80 80 0 80 0 0 -80z"/>
</g>
</svg>
